<svg xmlns="http://www.w3.org/2000/svg" viewBox="0 0 512 512" role="img" aria-label="Poker Analyzer">
  <rect width="512" height="512" rx="96" fill="#000000"/>
  <circle cx="256" cy="256" r="186" fill="#000000"/>
  <rect x="156" y="110" width="224" height="292" rx="24" fill="#ffffff"/>
  <path d="M210 164h42c46 0 72 24 72 64s-27 65-73 65h-24v72h-17V164zm17 17v95h24c36 0 55-17 55-48 0-30-18-47-54-47h-25z" fill="#000000"/>
  <path d="M350 365h-18l-17-49h-72l-17 49h-18l64-201h16l62 201zm-60-128c-8-24-13-41-16-51-3 12-8 29-16 51l-21 62h62l-19-62z" fill="#000000"/>
</svg>
